<svg width="25" height="23" viewBox="0 0 25 23" fill="none" xmlns="http://www.w3.org/2000/svg">
<path d="M17.474 4.00002L21.3889 7.91495C21.5538 8.07988 21.5538 8.34898 21.3889 8.51391L11.9097 17.9931L7.88194 18.4401C7.34375 18.5009 6.88802 18.0452 6.94878 17.507L7.39583 13.4792L16.875 4.00002C17.0399 3.83509 17.309 3.83509 17.474 4.00002ZM24.5052 3.0061L22.3872 0.888041C21.7274 0.228319 20.6554 0.228319 19.9913 0.888041L18.4549 2.4245C18.2899 2.58943 18.2899 2.85853 18.4549 3.02346L22.3698 6.93839C22.5347 7.10332 22.8038 7.10332 22.9687 6.93839L24.5052 5.40193C25.1649 4.73787 25.1649 3.66582 24.5052 3.0061ZM16.6667 15.415V19.8334H2.77778V5.94446H12.7517C12.8906 5.94446 13.0208 5.88804 13.1207 5.79255L14.8568 4.05644C15.1866 3.72658 14.9523 3.16669 14.4878 3.16669H2.08333C0.93316 3.16669 0 4.09985 0 5.25002V20.5278C0 21.678 0.93316 22.6111 2.08333 22.6111H17.3611C18.5113 22.6111 19.4444 21.678 19.4444 20.5278V13.6788C19.4444 13.2144 18.8845 12.9844 18.5547 13.3099L16.8186 15.046C16.7231 15.1459 16.6667 15.2761 16.6667 15.415Z" fill="white"/>
</svg>
