<svg width="39" height="39" viewBox="0 0 39 39" fill="none" xmlns="http://www.w3.org/2000/svg">
<circle cx="19.5" cy="19.5" r="19.5" fill="#99C46B"/>
<path d="M23.625 14.625C23.625 17.1782 21.5532 19.25 19 19.25C16.4468 19.25 14.375 17.1782 14.375 14.625C14.375 12.0718 16.4468 10 19 10C21.5532 10 23.625 12.0718 23.625 14.625ZM19 23.125C20.0855 23.125 21.12 22.8993 22.0587 22.5H24C26.2094 22.5 28 24.2906 28 26.5V27.125C28 27.6079 27.6079 28 27.125 28H10.875C10.3921 28 10 27.6079 10 27.125V26.5C10 24.2906 11.7906 22.5 14 22.5H15.942C16.8822 22.8988 17.9132 23.125 19 23.125Z" stroke="#393939" stroke-width="2"/>
</svg>
