<svg width="147" height="38" viewBox="0 0 147 38" fill="none" xmlns="http://www.w3.org/2000/svg">
<path d="M5.37402 24H0.423002L10.0179 4.94044H16.1509L19.4174 24H14.4664L12.3725 9.74255H12.2236L5.37402 24ZM5.96963 16.499H16.3184L15.7228 19.9982H5.37402L5.96963 16.499ZM21.4695 24L24.6337 4.94044H29.2403L26.709 20.2588H34.6381L34.0052 24H21.4695ZM41.7319 4.94044L43.6769 18.9001H43.8352L50.4148 4.94044H55.5706L45.9756 24H39.8427L36.5761 4.94044H41.7319ZM54.4584 24L57.6226 4.94044H70.9122L70.2794 8.68162H61.5965L60.9636 12.5903H68.9672L68.3343 16.3408H60.3308L59.698 20.2588H68.3809L67.748 24H54.4584ZM83.1315 10.6918C83.1812 9.99073 82.995 9.44785 82.5731 9.06319C82.1575 8.67852 81.4998 8.48619 80.6002 8.48619C80.0046 8.48619 79.4958 8.56374 79.0739 8.71885C78.652 8.86775 78.3201 9.0787 78.0781 9.35169C77.8362 9.61847 77.6842 9.92868 77.6221 10.2823C77.5663 10.5615 77.5818 10.8097 77.6687 11.0268C77.7555 11.244 77.9075 11.4363 78.1247 11.6038C78.348 11.7714 78.6241 11.9172 78.9529 12.0412C79.288 12.1653 79.6633 12.2739 80.079 12.367L81.6425 12.7392C82.5483 12.944 83.3332 13.217 83.997 13.5582C84.6671 13.8932 85.21 14.2996 85.6257 14.7773C86.0413 15.2489 86.3267 15.7917 86.4818 16.406C86.637 17.0202 86.6494 17.7089 86.5191 18.472C86.3205 19.6756 85.8459 20.7086 85.0952 21.571C84.3507 22.4334 83.3766 23.0942 82.173 23.5533C80.9755 24.0124 79.5827 24.242 77.9944 24.242C76.4061 24.242 75.0567 24.0031 73.9461 23.5254C72.8417 23.0414 72.0414 22.3124 71.545 21.3384C71.0487 20.3643 70.9153 19.1358 71.1449 17.653H75.5468C75.4785 18.2672 75.5561 18.7791 75.7795 19.1886C76.009 19.5981 76.3627 19.9083 76.8404 20.1192C77.3181 20.3302 77.8951 20.4356 78.5714 20.4356C79.1918 20.4356 79.7347 20.3519 80.2 20.1844C80.6715 20.0168 81.0469 19.7842 81.3261 19.4864C81.6115 19.1886 81.7852 18.8473 81.8472 18.4627C81.9093 18.109 81.8503 17.8019 81.6704 17.5413C81.4967 17.2808 81.1989 17.0543 80.777 16.862C80.3613 16.6696 79.8153 16.4959 79.1391 16.3408L77.2313 15.8755C75.6554 15.4908 74.461 14.8766 73.6483 14.0328C72.8417 13.189 72.5563 12.0443 72.7921 10.5987C72.9906 9.41373 73.4808 8.37761 74.2625 7.4904C75.0505 6.60319 76.0462 5.91451 77.2499 5.42437C78.4597 4.92803 79.7905 4.67986 81.2423 4.67986C82.7189 4.67986 83.9598 4.93113 84.9649 5.43368C85.9762 5.93002 86.7052 6.63111 87.1519 7.53693C87.6048 8.43655 87.7351 9.48818 87.5428 10.6918H83.1315Z" fill="#99C46B"/>
<path d="M88.3711 24L91.5352 4.94044H98.6826C100.147 4.94044 101.335 5.19481 102.247 5.70357C103.159 6.21232 103.795 6.92581 104.155 7.84404C104.515 8.75607 104.592 9.82011 104.387 11.0361C104.189 12.2522 103.755 13.31 103.085 14.2096C102.421 15.1031 101.543 15.7948 100.451 16.285C99.365 16.7751 98.0901 17.0202 96.6259 17.0202H91.5352L92.0192 14.1538H96.6538C97.51 14.1538 98.2297 14.0359 98.8129 13.8002C99.3961 13.5582 99.8552 13.2076 100.19 12.7485C100.531 12.2832 100.758 11.7124 100.87 11.0361C100.975 10.3599 100.935 9.78288 100.749 9.30515C100.569 8.82122 100.224 8.45517 99.7156 8.20699C99.213 7.95262 98.5337 7.82543 97.6775 7.82543H94.5133L91.8237 24H88.3711ZM99.6504 15.3636L102.936 24H99.0828L95.8813 15.3636H99.6504ZM111.456 24.2792C110.022 24.2792 108.837 23.9814 107.901 23.3858C106.964 22.784 106.306 21.934 105.928 20.8358C105.555 19.7315 105.493 18.4317 105.741 16.9364C105.983 15.466 106.477 14.1755 107.221 13.0649C107.966 11.9482 108.896 11.0796 110.013 10.4591C111.136 9.83252 112.377 9.5192 113.736 9.5192C114.617 9.5192 115.426 9.6619 116.165 9.9473C116.903 10.2265 117.527 10.6608 118.035 11.2502C118.544 11.8396 118.895 12.5903 119.087 13.5024C119.279 14.4082 119.27 15.4877 119.059 16.741L118.901 17.774H107.175L107.538 15.5032H116.025C116.137 14.858 116.1 14.2841 115.913 13.7815C115.727 13.2728 115.417 12.8726 114.983 12.581C114.548 12.2894 114.006 12.1436 113.354 12.1436C112.69 12.1436 112.07 12.3142 111.493 12.6555C110.922 12.9905 110.441 13.4248 110.05 13.9584C109.66 14.4919 109.411 15.0534 109.306 15.6428L108.924 17.8205C108.788 18.7139 108.819 19.443 109.017 20.0075C109.216 20.5721 109.563 20.9878 110.06 21.2546C110.556 21.5214 111.183 21.6548 111.94 21.6548C112.436 21.6548 112.895 21.5865 113.317 21.45C113.739 21.3135 114.114 21.1088 114.443 20.8358C114.778 20.5566 115.057 20.2154 115.281 19.8121L118.361 20.1658C118.02 20.9971 117.52 21.723 116.863 22.3435C116.205 22.9577 115.417 23.4354 114.499 23.7766C113.587 24.1117 112.572 24.2792 111.456 24.2792ZM125.49 15.6242L124.112 24H120.734L123.117 9.70533H126.346L125.936 12.1343H126.113C126.56 11.334 127.187 10.698 127.993 10.2265C128.8 9.75496 129.74 9.5192 130.813 9.5192C131.787 9.5192 132.606 9.73015 133.27 10.152C133.934 10.5677 134.405 11.1788 134.684 11.9854C134.964 12.7858 135.007 13.7567 134.815 14.8983L133.289 24H129.92L131.343 15.4195C131.505 14.4702 131.384 13.7257 130.981 13.1859C130.583 12.64 129.944 12.367 129.063 12.367C128.474 12.367 127.931 12.4973 127.435 12.7578C126.938 13.0122 126.52 13.3814 126.178 13.8653C125.843 14.3492 125.614 14.9355 125.49 15.6242ZM146.215 9.70533L145.778 12.3111H137.569L137.998 9.70533H146.215ZM140.585 6.28056H143.954L141.72 19.7004C141.652 20.1533 141.664 20.5008 141.757 20.7428C141.857 20.9785 142.015 21.1398 142.232 21.2267C142.455 21.3135 142.707 21.357 142.986 21.357C143.191 21.357 143.383 21.3415 143.563 21.3104C143.743 21.2732 143.885 21.2453 143.991 21.2267L144.14 23.8604C143.935 23.9224 143.659 23.9907 143.312 24.0651C142.97 24.1396 142.561 24.183 142.083 24.1954C141.227 24.214 140.482 24.0838 139.85 23.8046C139.223 23.5192 138.764 23.0818 138.472 22.4924C138.187 21.8967 138.122 21.1522 138.277 20.2588L140.585 6.28056Z" fill="white"/>
<path d="M4.36893 35.7258C3.65543 35.7258 3.06913 35.5691 2.61001 35.2558C2.15089 34.9425 1.82982 34.5097 1.6468 33.9576C1.46687 33.4023 1.4374 32.7632 1.55839 32.0404C1.67627 31.3145 1.91979 30.6739 2.28894 30.1187C2.6612 29.5603 3.12962 29.126 3.69421 28.8158C4.2588 28.5024 4.89009 28.3458 5.58807 28.3458C6.16817 28.3458 6.66296 28.4528 7.07244 28.6669C7.48503 28.8778 7.79214 29.1772 7.99378 29.5649C8.19852 29.9496 8.27763 30.3994 8.23109 30.9144H6.61643C6.61022 30.57 6.5032 30.2831 6.29536 30.0535C6.08751 29.8209 5.7835 29.7045 5.38333 29.7045C5.03589 29.7045 4.71637 29.7976 4.42477 29.9837C4.13316 30.1667 3.88654 30.4304 3.6849 30.7748C3.48326 31.1191 3.34367 31.5317 3.26611 32.0125C3.18546 32.4996 3.18701 32.9183 3.27077 33.2689C3.35763 33.6163 3.51429 33.8847 3.74074 34.0739C3.9703 34.26 4.26035 34.3531 4.61089 34.3531C4.85906 34.3531 5.09017 34.3065 5.30422 34.2135C5.51827 34.1173 5.70595 33.9793 5.86726 33.7993C6.03167 33.6194 6.16041 33.4007 6.25348 33.1432H7.86349C7.7363 33.6489 7.50985 34.0972 7.18412 34.488C6.8615 34.8758 6.46132 35.1798 5.98359 35.4001C5.50586 35.6172 4.96764 35.7258 4.36893 35.7258ZM10.8706 35.7304C10.4177 35.7304 10.0237 35.6498 9.68871 35.4885C9.35368 35.3241 9.10706 35.0821 8.94885 34.7626C8.79374 34.443 8.75497 34.0491 8.83252 33.5806C8.90077 33.1774 9.03106 32.8439 9.22339 32.5802C9.41883 32.3165 9.65769 32.1056 9.93999 31.9474C10.2254 31.7861 10.5356 31.6651 10.8706 31.5844C11.2088 31.5038 11.5531 31.4448 11.9036 31.4076C12.3317 31.3642 12.6776 31.3238 12.9413 31.2866C13.2081 31.2494 13.4082 31.1935 13.5416 31.1191C13.675 31.0415 13.7556 30.9237 13.7835 30.7655V30.7375C13.8394 30.387 13.7835 30.1156 13.616 29.9232C13.4485 29.7309 13.1693 29.6347 12.7784 29.6347C12.369 29.6347 12.0246 29.7247 11.7454 29.9046C11.4662 30.0845 11.263 30.297 11.1359 30.5421L9.60961 30.3187C9.80194 29.8844 10.0656 29.5215 10.4007 29.2299C10.7357 28.9352 11.1219 28.7149 11.5593 28.5691C11.9998 28.4202 12.4698 28.3458 12.9692 28.3458C13.3105 28.3458 13.6439 28.3861 13.9697 28.4668C14.2985 28.5474 14.5885 28.6808 14.8398 28.8669C15.0942 29.05 15.2803 29.2997 15.3982 29.6161C15.5192 29.9325 15.5394 30.3281 15.4587 30.8027L14.663 35.5862H13.0437L13.2112 34.6044H13.1554C13.022 34.8029 12.8482 34.989 12.6342 35.1627C12.4201 35.3334 12.1658 35.4714 11.8711 35.5769C11.5764 35.6792 11.2429 35.7304 10.8706 35.7304ZM11.5081 34.4927C11.8463 34.4927 12.1503 34.426 12.4201 34.2926C12.69 34.1561 12.9118 33.9762 13.0856 33.7528C13.2593 33.5295 13.3679 33.2859 13.4113 33.0223L13.5509 32.18C13.4888 32.2235 13.3927 32.2638 13.2624 32.301C13.1321 32.3382 12.9863 32.3708 12.825 32.3987C12.6668 32.4266 12.5101 32.4515 12.355 32.4732C12.1999 32.4949 12.0665 32.5135 11.9548 32.529C11.6973 32.5631 11.4616 32.619 11.2475 32.6965C11.0366 32.7741 10.8613 32.8827 10.7217 33.0223C10.5852 33.1588 10.4999 33.3356 10.4658 33.5527C10.4162 33.8598 10.4891 34.0941 10.6845 34.2554C10.8799 34.4136 11.1545 34.4927 11.5081 34.4927ZM16.3568 35.5862L17.548 28.4388H19.1813L18.9812 29.6301H19.0556C19.2511 29.2175 19.5272 28.8995 19.8839 28.6762C20.2438 28.4497 20.6284 28.3365 21.0379 28.3365C21.1341 28.3365 21.238 28.3411 21.3497 28.3504C21.4613 28.3566 21.5575 28.3675 21.6382 28.383L21.3776 29.9325C21.3062 29.9077 21.1946 29.886 21.0426 29.8674C20.8936 29.8457 20.7463 29.8348 20.6005 29.8348C20.2934 29.8348 20.008 29.9015 19.7443 30.0349C19.4837 30.1652 19.2635 30.3467 19.0835 30.5793C18.9036 30.812 18.7873 31.0803 18.7346 31.3843L18.0412 35.5862H16.3568ZM27.1976 31.3983L26.5089 35.5862H24.8198L26.4019 26.0564H28.0538L27.4582 29.6533H27.5466C27.773 29.247 28.0817 28.9274 28.4726 28.6948C28.8665 28.4621 29.3396 28.3458 29.8918 28.3458C30.3819 28.3458 30.7945 28.4497 31.1296 28.6575C31.4646 28.8654 31.7003 29.1694 31.8368 29.5696C31.9764 29.9698 31.9997 30.4583 31.9066 31.0353L31.1435 35.5862H29.4544L30.171 31.2959C30.2485 30.8151 30.185 30.4413 29.9802 30.1745C29.7786 29.9046 29.4591 29.7697 29.0216 29.7697C28.7207 29.7697 28.4431 29.8348 28.1887 29.9651C27.9343 30.0923 27.7203 30.2769 27.5466 30.5188C27.376 30.7608 27.2596 31.054 27.1976 31.3983ZM32.8512 35.5862L34.0425 28.4388H35.7269L34.5357 35.5862H32.8512ZM35.1313 27.4151C34.8614 27.4151 34.6381 27.3252 34.4613 27.1453C34.2844 26.9653 34.2069 26.7497 34.2286 26.4985C34.2503 26.2472 34.3635 26.0316 34.5683 25.8517C34.7761 25.6717 35.0134 25.5818 35.2802 25.5818C35.5501 25.5818 35.7719 25.6717 35.9456 25.8517C36.1225 26.0316 36.2 26.2472 36.1783 26.4985C36.1597 26.7497 36.0464 26.9653 35.8386 27.1453C35.6339 27.3252 35.3981 27.4151 35.1313 27.4151ZM36.2679 35.5862L37.4591 28.4388H39.0924L38.8923 29.6301H38.9667C39.1622 29.2175 39.4383 28.8995 39.795 28.6762C40.1548 28.4497 40.5395 28.3365 40.949 28.3365C41.0452 28.3365 41.1491 28.3411 41.2608 28.3504C41.3724 28.3566 41.4686 28.3675 41.5493 28.383L41.2887 29.9325C41.2173 29.9077 41.1057 29.886 40.9537 29.8674C40.8047 29.8457 40.6574 29.8348 40.5116 29.8348C40.2045 29.8348 39.9191 29.9015 39.6554 30.0349C39.3948 30.1652 39.1746 30.3467 38.9946 30.5793C38.8147 30.812 38.6984 31.0803 38.6457 31.3843L37.9523 35.5862H36.2679ZM44.3272 35.7258C43.6106 35.7258 43.0181 35.5769 42.5497 35.2791C42.0813 34.9782 41.7525 34.5532 41.5632 34.0041C41.3771 33.4519 41.3461 32.802 41.4702 32.0544C41.5911 31.3192 41.8378 30.6739 42.21 30.1187C42.5823 29.5603 43.0476 29.126 43.606 28.8158C44.1675 28.5024 44.7879 28.3458 45.4673 28.3458C45.9078 28.3458 46.3126 28.4171 46.6818 28.5598C47.0509 28.6994 47.3627 28.9166 47.617 29.2113C47.8714 29.506 48.0467 29.8813 48.1429 30.3374C48.239 30.7903 48.2344 31.33 48.1289 31.9567L48.0498 32.4732H42.1868L42.3682 31.3378H46.612C46.6678 31.0152 46.6492 30.7282 46.5561 30.477C46.4631 30.2226 46.3079 30.0225 46.0908 29.8767C45.8736 29.7309 45.6022 29.658 45.2765 29.658C44.9446 29.658 44.6343 29.7433 44.3458 29.9139C44.0604 30.0814 43.82 30.2986 43.6246 30.5654C43.4292 30.8321 43.3051 31.1129 43.2523 31.4076L43.0616 32.4964C42.9933 32.9432 43.0088 33.3077 43.1081 33.59C43.2074 33.8722 43.3811 34.0801 43.6292 34.2135C43.8774 34.3469 44.1907 34.4136 44.5692 34.4136C44.8174 34.4136 45.0469 34.3794 45.2579 34.3112C45.4688 34.243 45.6565 34.1406 45.8209 34.0041C45.9884 33.8645 46.128 33.6939 46.2397 33.4922L47.7799 33.6691C47.6093 34.0847 47.3596 34.4477 47.0307 34.7579C46.7019 35.065 46.3079 35.3039 45.8488 35.4745C45.3928 35.642 44.8856 35.7258 44.3272 35.7258Z" fill="white"/>
</svg>
